<?xml version="1.0" encoding="utf-8" standalone="no"?>
<!DOCTYPE svg PUBLIC "-//W3C//DTD SVG 1.1//EN"
  "http://www.w3.org/Graphics/SVG/1.1/DTD/svg11.dtd">
<svg xmlns:xlink="http://www.w3.org/1999/xlink" width="576pt" height="144pt" viewBox="0 0 576 144" xmlns="http://www.w3.org/2000/svg" version="1.1">
 <metadata>
  <rdf:RDF xmlns:dc="http://purl.org/dc/elements/1.1/" xmlns:cc="http://creativecommons.org/ns#" xmlns:rdf="http://www.w3.org/1999/02/22-rdf-syntax-ns#">
   <cc:Work>
    <dc:type rdf:resource="http://purl.org/dc/dcmitype/StillImage"/>
    <dc:date>2025-09-07T12:42:37.489346</dc:date>
    <dc:format>image/svg+xml</dc:format>
    <dc:creator>
     <cc:Agent>
      <dc:title>Matplotlib v3.6.3, https://matplotlib.org/</dc:title>
     </cc:Agent>
    </dc:creator>
   </cc:Work>
  </rdf:RDF>
 </metadata>
 <defs>
  <style type="text/css">*{stroke-linejoin: round; stroke-linecap: butt}</style>
 </defs>
 <g id="figure_1">
  <g id="patch_1">
   <path d="M 0 144 
L 576 144 
L 576 0 
L 0 0 
L 0 144 
z
" style="fill: none"/>
  </g>
  <g id="axes_1">
   <g id="patch_2">
    <path d="M 117.443758 101.651689 
Q 106.837759 105.660281 95.430419 107.67373 
Q 84.023078 109.668874 71.861533 109.668874 
Q 44.380212 109.668874 28.329801 97.734616 
Q 12.27939 85.800358 12.27939 65.391313 
Q 12.27939 44.744315 28.612627 32.901577 
Q 44.969434 21.05884 73.417079 21.05884 
Q 84.376611 21.05884 94.416957 22.669599 
Q 104.480871 24.262053 113.38991 27.410355 
L 113.38991 45.073788 
Q 104.198044 41.028587 95.100454 39.033443 
Q 86.002864 37.019995 76.858137 37.019995 
Q 59.935677 37.019995 50.76738 44.378233 
Q 41.599083 51.718168 41.599083 65.391313 
Q 41.599083 78.93633 50.437416 86.331177 
Q 59.275748 93.707719 75.538279 93.707719 
Q 79.96923 93.707719 83.76382 93.286726 
Q 87.558411 92.847428 90.575228 91.932224 
L 90.575228 75.348731 
L 73.252097 75.348731 
L 73.252097 60.577341 
L 117.443758 60.577341 
L 117.443758 101.651689 
z
M 141.251279 18.990479 
L 167.601293 18.990479 
L 167.601293 108.003203 
L 141.251279 108.003203 
L 141.251279 18.990479 
z
M 229.911535 79.174283 
Q 221.662425 79.174283 217.490732 81.352468 
Q 213.342608 83.512349 213.342608 87.758895 
Q 213.342608 91.639359 216.68939 93.854152 
Q 220.059741 96.050641 226.022669 96.050641 
Q 233.446868 96.050641 238.537747 91.91392 
Q 243.628626 87.758895 243.628626 81.517205 
L 243.628626 79.174283 
L 229.911535 79.174283 
z
M 270.21433 71.449963 
L 270.21433 108.003203 
L 243.628626 108.003203 
L 243.628626 98.503388 
Q 238.325627 104.342388 231.679201 107.014783 
Q 225.056344 109.668874 215.558083 109.668874 
Q 202.73661 109.668874 194.746757 103.866482 
Q 186.756905 98.045786 186.756905 88.783923 
Q 186.756905 77.508612 196.726544 72.255342 
Q 206.719751 66.983768 228.073162 66.983768 
L 243.628626 66.983768 
L 243.628626 65.391313 
Q 243.628626 60.522429 238.67916 58.271027 
Q 233.753263 56.001322 223.288678 56.001322 
Q 214.827448 56.001322 207.521093 57.319215 
Q 200.238308 58.637109 193.968984 61.272896 
L 193.968984 45.659519 
Q 202.453783 44.04876 210.98572 43.225077 
Q 219.541225 42.401393 228.073162 42.401393 
Q 250.392897 42.401393 260.291829 49.228814 
Q 270.21433 56.056234 270.21433 71.449963 
z
M 361.396456 45.93408 
L 361.396456 62.645702 
Q 356.022751 59.790266 350.601907 58.41746 
Q 345.181063 57.044654 339.359548 57.044654 
Q 328.32931 57.044654 322.177831 62.041667 
Q 316.026351 67.03868 316.026351 76.025982 
Q 316.026351 85.013283 322.177831 90.0286 
Q 328.32931 95.025613 339.359548 95.025613 
Q 345.558165 95.025613 351.120422 93.597895 
Q 356.682679 92.151873 361.396456 89.351349 
L 361.396456 106.117883 
Q 355.19784 107.893379 348.83424 108.771974 
Q 342.470641 109.668874 336.059904 109.668874 
Q 313.740169 109.668874 301.130815 100.773093 
Q 288.54503 91.877312 288.54503 76.025982 
Q 288.54503 60.174651 301.130815 51.297174 
Q 313.740169 42.401393 336.059904 42.401393 
Q 342.541348 42.401393 348.83424 43.279989 
Q 355.127133 44.158584 361.396456 45.93408 
z
M 466.484226 75.806333 
L 466.484226 81.627029 
L 404.85159 81.627029 
Q 405.794345 88.838835 411.545153 92.444738 
Q 417.295961 96.050641 427.595564 96.050641 
Q 435.915381 96.050641 444.635869 94.128713 
Q 453.379926 92.206785 462.59536 88.326321 
L 462.59536 104.104435 
Q 453.238512 106.850046 443.881665 108.25946 
Q 434.524817 109.668874 425.167969 109.668874 
Q 402.777528 109.668874 390.356725 100.828005 
Q 377.959491 91.987136 377.959491 76.025982 
Q 377.959491 60.357692 390.144605 51.388695 
Q 402.329719 42.401393 423.706698 42.401393 
Q 443.151029 42.401393 454.817628 51.498519 
Q 466.484226 60.577341 466.484226 75.806333 
z
M 439.380007 68.997216 
Q 439.380007 63.158216 434.996195 59.588921 
Q 430.612382 56.001322 423.541716 56.001322 
Q 415.881828 56.001322 411.097344 59.350968 
Q 406.312861 62.700614 405.134416 68.997216 
L 439.380007 68.997216 
z
M 435.161177 14.304636 
L 455.996072 14.304636 
L 428.821147 35.811926 
L 414.396988 35.811926 
L 435.161177 14.304636 
z
M 523.417816 79.174283 
Q 515.168706 79.174283 510.997013 81.352468 
Q 506.848889 83.512349 506.848889 87.758895 
Q 506.848889 91.639359 510.195671 93.854152 
Q 513.566022 96.050641 519.52895 96.050641 
Q 526.953149 96.050641 532.044028 91.91392 
Q 537.134907 87.758895 537.134907 81.517205 
L 537.134907 79.174283 
L 523.417816 79.174283 
z
M 563.72061 71.449963 
L 563.72061 108.003203 
L 537.134907 108.003203 
L 537.134907 98.503388 
Q 531.831908 104.342388 525.185482 107.014783 
Q 518.562625 109.668874 509.064364 109.668874 
Q 496.24289 109.668874 488.253038 103.866482 
Q 480.263186 98.045786 480.263186 88.783923 
Q 480.263186 77.508612 490.232825 72.255342 
Q 500.226032 66.983768 521.579443 66.983768 
L 537.134907 66.983768 
L 537.134907 65.391313 
Q 537.134907 60.522429 532.185441 58.271027 
Q 527.259544 56.001322 516.794959 56.001322 
Q 508.333729 56.001322 501.027374 57.319215 
Q 493.744589 58.637109 487.475265 61.272896 
L 487.475265 45.659519 
Q 495.960064 44.04876 504.492 43.225077 
Q 513.047506 42.401393 521.579443 42.401393 
Q 543.899178 42.401393 553.79811 49.228814 
Q 563.72061 56.056234 563.72061 71.449963 
z
" clip-path="url(#p7cfb19a22e)" style="fill: #1f2937"/>
   </g>
   <g id="patch_3">
    <path d="M 18.419084 121.112583 
C 205.283817 115.390728 409.317069 115.390728 497.547664 119.205298 
" clip-path="url(#p7cfb19a22e)" style="fill: none; stroke: #f59e0b; stroke-width: 6; stroke-linejoin: miter; stroke-linecap: round"/>
   </g>
  </g>
 </g>
 <defs>
  <clipPath id="p7cfb19a22e">
   <rect x="0" y="0" width="576" height="144"/>
  </clipPath>
 </defs>
</svg>
